<svg width="192" height="96" xmlns="http://www.w3.org/2000/svg">
    <!-- Simple Pixel Art Knight Sprite Sheet -->
    <style>
        .p { fill: #3d2c8d; } /* Purple */
        .s { fill: #907fa4; } /* Skin */
        .e { fill: #e9a6a6; } /* Accent */
        .w { fill: #f4f1de; } /* White */
    </style>
    <rect width="192" height="96" fill="#ff00ff"/> <!-- Magenta for transparency -->

    <!-- Idle Animation (4 frames) -->
    <g transform="translate(0, 0)">
        <rect class="p" x="12" y="12" width="8" height="16"/>
        <rect class="s" x="14" y="6" width="4" height="6"/>
        <rect class="e" x="10" y="20" width="12" height="4"/>
    </g>
    <g transform="translate(32, 0)">
        <rect class="p" x="12" y="12" width="8" height="16"/>
        <rect class="s" x="14" y="6" width="4" height="6"/>
        <rect class="e" x="10" y="21" width="12" height="4"/>
    </g>
    <!-- ... (add more simple frames) ... -->

    <!-- Run Animation (6 frames) -->
    <g transform="translate(0, 32)">
        <rect class="p" x="10" y="12" width="12" height="16"/>
        <rect class="s" x="14" y="6" width="4" height="6"/>
        <rect class="e" x="8" y="20" width="8" height="4"/>
    </g>
    <g transform="translate(32, 32)">
        <rect class="p" x="10" y="12" width="12" height="16"/>
        <rect class="s" x="14" y="6" width="4" height="6"/>
        <rect class="e" x="16" y="20" width="8" height="4"/>
    </g>
    <!-- ... (add more simple frames) ... -->
    
    <!-- Victory Animation (5 frames) -->
    <g transform="translate(0, 64)">
        <rect class="p" x="12" y="10" width="8" height="18"/>
        <rect class="s" x="14" y="4" width="4" height="6"/>
        <rect class="w" x="14" y="14" width="4" height="10"/>
    </g>
    <!-- ... (add more simple frames) ... -->
</svg>
